<svg width="21" height="27" viewBox="0 0 21 27" fill="none" xmlns="http://www.w3.org/2000/svg">
<path d="M9.72943 26.0794C2.35102 15.3829 0.981445 14.2851 0.981445 10.354C0.981445 4.96921 5.34665 0.604004 10.7314 0.604004C16.1162 0.604004 20.4814 4.96921 20.4814 10.354C20.4814 14.2851 19.1119 15.3829 11.7335 26.0794C11.2493 26.7789 10.2136 26.7788 9.72943 26.0794ZM10.7314 14.4165C12.9751 14.4165 14.7939 12.5977 14.7939 10.354C14.7939 8.11034 12.9751 6.2915 10.7314 6.2915C8.48778 6.2915 6.66895 8.11034 6.66895 10.354C6.66895 12.5977 8.48778 14.4165 10.7314 14.4165Z" fill="#FFCC29"/>
</svg>