<svg width="27" height="27" viewBox="0 0 27 27" fill="none" xmlns="http://www.w3.org/2000/svg">
<path d="M25.7395 18.9767L20.052 16.5392C19.8091 16.4356 19.539 16.4138 19.2826 16.477C19.0262 16.5402 18.7972 16.685 18.6302 16.8896L16.1114 19.9669C12.1585 18.1031 8.97725 14.9219 7.11348 10.969L10.1908 8.45024C10.3958 8.28352 10.5409 8.05454 10.6041 7.79798C10.6673 7.54142 10.6453 7.27125 10.5412 7.02837L8.10371 1.34087C7.98951 1.07904 7.78753 0.865274 7.5326 0.736418C7.27767 0.607562 6.98577 0.571697 6.70723 0.635008L1.42598 1.85376C1.15743 1.91577 0.917832 2.06698 0.746287 2.2827C0.574743 2.49842 0.481383 2.76592 0.481445 3.04153C0.481445 16.0669 11.0389 26.604 24.0439 26.604C24.3196 26.6042 24.5873 26.5109 24.8031 26.3393C25.0189 26.1678 25.1702 25.9281 25.2322 25.6595L26.451 20.3783C26.5139 20.0984 26.4773 19.8053 26.3474 19.5495C26.2176 19.2937 26.0026 19.0911 25.7395 18.9767Z" fill="#FFCC29"/>
</svg>
