<svg width="23" height="27" viewBox="0 0 23 27" fill="none" xmlns="http://www.w3.org/2000/svg">
<path d="M19.449 5.53486C17.3213 3.40205 14.4877 2.229 11.4764 2.229C5.26074 2.229 0.20293 7.28682 0.20293 13.5024C0.20293 15.488 0.720898 17.4278 1.70605 19.1392L0.106445 24.979L6.0834 23.4099C7.72871 24.3087 9.58223 24.781 11.4713 24.781H11.4764C17.6869 24.781 22.8564 19.7231 22.8564 13.5075C22.8564 10.4962 21.5768 7.66768 19.449 5.53486ZM11.4764 22.8817C9.79043 22.8817 8.14004 22.4298 6.70293 21.5767L6.3627 21.3735L2.81816 22.3028L3.7627 18.8446L3.53926 18.4892C2.5998 16.9962 2.10723 15.2747 2.10723 13.5024C2.10723 8.33799 6.31191 4.1333 11.4814 4.1333C13.985 4.1333 16.3361 5.1083 18.1033 6.88057C19.8705 8.65283 20.9572 11.004 20.9521 13.5075C20.9521 18.6771 16.6408 22.8817 11.4764 22.8817ZM16.6154 15.8638C16.3361 15.7216 14.9498 15.0411 14.6908 14.9497C14.4318 14.8532 14.2439 14.8075 14.0561 15.0919C13.8682 15.3763 13.3299 16.006 13.1623 16.1989C12.9998 16.3868 12.8322 16.4122 12.5529 16.27C10.8975 15.4423 9.81074 14.7923 8.71895 12.9185C8.42949 12.4208 9.0084 12.4563 9.54668 11.3798C9.63809 11.1919 9.59238 11.0294 9.52129 10.8872C9.4502 10.745 8.88652 9.35869 8.65293 8.79502C8.42441 8.24658 8.19082 8.32275 8.01816 8.3126C7.85566 8.30244 7.66777 8.30244 7.47988 8.30244C7.29199 8.30244 6.9873 8.37354 6.72832 8.65283C6.46934 8.93721 5.74316 9.61768 5.74316 11.004C5.74316 12.3903 6.75371 13.731 6.89082 13.9188C7.03301 14.1067 8.87637 16.9505 11.7049 18.1743C13.4924 18.9462 14.1932 19.0122 15.0869 18.8802C15.6303 18.7989 16.7525 18.1997 16.9861 17.5396C17.2197 16.8794 17.2197 16.3157 17.1486 16.1989C17.0826 16.072 16.8947 16.0009 16.6154 15.8638Z" fill="#FFCC29"/>
</svg>
